PathFileType	4	(X/Y/Z)	D:\TRACE\spotREDO_2-26-24\spot_baseline_3-v60.trc
DataRate	CameraRate	NumFrames	NumMarkers	Units	OrigDataRate	OrigDataStartFrame	OrigNumFrames
100.00	100.00	      38	9	mm	100.00	2626	      7000
Frame#	Time	front left toe			Front right toe			aft left toe			aft right toe			Arm			FL body			FR body			AL Body			AR Body			
		X1	Y1	Z1	X2	Y2	Z2	X3	Y3	Z3	X4	Y4	Z4	X5	Y5	Z5	X6	Y6	Z6	X7	Y7	Z7	X8	Y8	Z8	X9	Y9	Z9	

2626	26.250	-157.27235	21.35561	-220.89442	315.16855	21.58574	-174.84833	-192.34395	21.97408	218.52917	271.18073	24.70352	263.25424	115.89381	808.39612	-390.63760	27.21130	550.42474	-374.69418	182.25960	552.78613	-363.10745	-45.62046	559.27423	506.91403	101.74483	556.86194	519.03448	
2627	26.260	-157.25040	21.36148	-220.85770	315.00455	21.58574	-174.91362	-192.32060	22.07505	218.54240	271.17111	24.70653	263.34488	115.93694	808.58551	-389.83466	27.52339	550.40143	-373.36816	182.84207	552.83746	-362.15643	-45.69404	559.30066	507.73483	102.06008	556.74963	520.00867	
2628	26.270	-157.27702	21.32137	-220.84076	315.17566	21.50624	-174.87405	-192.22768	21.94999	218.51694	271.22241	24.75829	263.36447	116.46005	808.67975	-388.76044	27.63049	550.56866	-372.72095	183.00700	552.91290	-361.24417	-44.66301	559.39270	509.18665	102.36160	556.71320	520.85608	
2629	26.280	-157.28418	21.32639	-220.82201	314.98953	21.57798	-174.88499	-192.15802	21.92362	218.55521	271.21243	24.73377	263.40598	116.60998	808.76801	-387.96298	27.79700	550.76929	-371.70859	183.20024	552.89154	-360.29254	-45.16599	559.33899	509.53180	102.85156	556.66852	521.86194	
2630	26.290	-157.28908	21.31092	-220.81642	315.00183	21.59060	-174.83086	-192.17873	21.96699	218.59354	271.24030	24.74906	263.46805	117.12499	808.88959	-386.92279	28.11798	550.83234	-370.79999	183.44432	553.04529	-359.41486	-43.96764	559.36060	510.99945	102.96050	556.66754	522.51471	
2631	26.300	-157.27023	21.34600	-220.81848	315.23825	21.59716	-174.68666	-192.25450	22.03312	218.63318	271.24600	24.70717	263.54086	117.24352	808.98999	-385.97482	28.27796	550.90479	-369.89542	183.51459	553.14465	-358.64368	-43.33384	559.84668	512.20709	103.34068	556.68036	523.73285	
2632	26.310	-157.23953	21.55427	-220.78764	315.26785	21.60769	-174.61684	-192.26851	22.07789	218.74348	271.26486	24.67779	263.68246	117.76865	809.17456	-384.96515	28.54297	551.02032	-368.90756	184.12808	553.29596	-357.56891	-44.05512	559.34503	512.40472	103.53067	556.65771	524.53381	
2633	26.320	-156.37968	25.89527	-219.23924	315.35983	21.29510	-174.48274	-192.33298	21.76574	218.77083	271.41043	24.59725	263.69849	118.09817	809.16937	-384.05545	29.00628	550.75470	-367.93961	184.38222	553.29718	-356.71298	-44.08987	559.35999	513.20868	103.62012	556.85858	525.54156	
2634	26.330	-154.81589	35.66435	-215.70361	315.81616	21.27503	-174.06494	-192.08386	21.68301	218.93188	271.50751	24.59187	263.79303	117.40361	809.27643	-383.28952	29.95024	550.22412	-367.22504	185.17448	553.43628	-355.54950	-43.17775	559.21960	514.85895	103.75910	557.09253	526.49652	
2635	26.340	-153.76440	47.41824	-212.12335	315.49911	21.16820	-174.09619	-191.80542	21.74964	218.83330	271.46100	24.66766	263.79980	116.40945	808.74969	-382.95758	30.52132	549.62207	-366.66357	185.44255	553.39923	-355.03683	-43.25985	559.30249	515.29150	103.91393	557.54114	527.41394	
2636	26.350	-156.63696	59.43160	-212.07619	315.56436	21.09036	-174.03473	-191.53923	21.93469	218.88448	271.44870	24.76347	263.82141	116.18752	808.26837	-382.44980	30.94163	549.12335	-365.78180	186.00279	553.24548	-353.99081	-43.83767	559.29718	515.39514	103.78330	557.95313	527.86707	
2637	26.360	-159.69579	71.53133	-216.52049	315.54816	21.12549	-174.06177	-191.65550	22.09533	219.03580	271.48959	24.76481	263.84863	116.34902	807.95197	-382.05624	31.19828	548.63470	-365.01794	186.20557	553.04688	-353.43726	-42.64766	559.63257	516.95636	104.20845	558.21729	528.63605	
2638	26.370	-161.92795	83.10632	-222.67526	315.29956	21.12242	-174.08246	-191.67123	22.09574	219.04419	271.48468	24.64351	263.84842	116.68472	807.56714	-381.22339	31.05715	548.52161	-364.30511	186.26007	552.85901	-352.82440	-42.30015	559.46729	517.76233	104.48677	558.34637	529.34302	
2639	26.380	-161.09196	94.21223	-227.03957	315.35349	21.13770	-174.19370	-191.71045	22.10988	219.08983	271.57190	24.50853	263.88525	116.66799	807.70746	-380.41437	30.98714	548.40833	-363.46185	186.43015	552.82239	-351.84543	-42.89539	559.30743	517.68707	104.77133	558.24335	530.07758	
2640	26.390	-160.51543	104.04860	-229.03714	315.43387	21.20746	-174.03539	-191.66705	22.05052	219.08072	271.68292	24.50901	263.93188	116.69454	807.74200	-379.78156	31.16101	548.34589	-362.90521	186.50105	552.90228	-351.31546	-41.68726	559.20648	519.28601	104.97350	558.04358	530.74121	
2641	26.400	-160.66316	113.61967	-228.99654	315.46451	21.13268	-173.96709	-191.66998	22.09064	219.11118	271.68033	24.52187	263.97485	116.73802	807.79022	-378.90967	31.27162	548.35608	-362.30981	186.45572	552.96600	-350.79788	-41.89943	559.00824	519.67651	104.89056	557.94281	531.18353	
2642	26.410	-162.22079	122.41780	-229.22485	315.46683	21.14312	-173.91064	-191.69008	22.03959	219.15883	271.68781	24.52113	264.01126	116.21936	807.81287	-378.32230	31.34173	548.28931	-361.62155	186.57333	553.05005	-350.14713	-42.80843	558.62396	519.47516	104.90503	557.85846	531.97955	
2643	26.420	-164.63396	130.75662	-230.90225	315.56888	21.05850	-173.84567	-191.70610	22.07288	219.21329	271.70871	24.54980	264.04178	116.12888	807.66022	-377.95111	31.36236	548.13391	-361.20618	186.87328	552.92987	-349.50195	-42.75137	558.43134	520.19684	105.00844	557.65039	532.43335	
2644	26.430	-167.44173	137.09576	-233.45602	315.63483	21.01790	-173.86389	-191.74712	22.11447	219.26677	271.62222	24.54078	264.01489	116.39180	807.49677	-377.37946	31.47932	548.07269	-360.53503	186.80991	552.78381	-349.05020	-41.83904	558.62006	521.44446	105.21344	557.63110	532.91595	
2645	26.440	-169.57440	141.76399	-236.98901	315.49817	21.05403	-173.86864	-191.72073	22.13025	219.27042	271.61362	24.49976	264.00443	116.81917	807.48438	-376.81442	31.50336	548.26703	-359.93188	186.75490	552.80231	-348.66830	-41.74402	558.60437	521.84784	105.29388	557.45355	533.59314	
2646	26.450	-170.73145	143.63086	-240.02834	315.49966	21.08540	-173.81033	-191.74725	22.12614	219.33791	271.59982	24.48951	264.04727	117.09457	807.68854	-376.09213	31.40203	548.46051	-359.42377	186.66768	552.94147	-347.94315	-42.45862	558.19202	521.85614	105.17568	557.25000	534.23279	
2647	26.460	-171.85896	143.50076	-242.72574	315.36325	21.03970	-173.86343	-191.76881	22.08607	219.34627	271.53638	24.47176	264.03067	117.13196	807.95416	-375.53690	31.27971	548.71527	-359.11850	186.62726	553.19232	-347.45648	-41.54885	558.18457	523.08319	105.52299	557.19696	534.92157	
2648	26.470	-172.73622	142.41827	-244.83275	315.42084	21.13048	-173.85330	-191.68733	22.09069	219.39536	271.62839	24.50815	264.09042	116.45397	808.38336	-374.78394	31.40535	548.86285	-358.62363	186.45177	553.45844	-347.05719	-41.79626	558.09033	523.45361	105.64213	557.13232	535.43597	
2649	26.480	-174.10373	141.69623	-246.81631	315.48389	21.22536	-173.80145	-191.73137	22.09027	219.41835	271.63263	24.51937	264.07950	115.90072	808.49371	-374.49738	31.58010	548.85693	-358.04745	186.65405	553.66449	-346.48892	-42.79325	557.79449	523.25391	105.42343	557.09949	535.99963	
2650	26.490	-175.68707	141.52895	-248.80292	315.40192	21.30922	-173.74843	-191.73839	22.08068	219.39404	271.59998	24.56306	264.08575	115.67944	808.46570	-374.25217	31.55832	548.76141	-357.55850	186.69849	553.67236	-346.08966	-42.02050	557.83179	524.39026	105.15105	557.13593	536.24988	
2651	26.500	-178.02768	142.14661	-250.63116	315.56586	21.40216	-173.66908	-191.82106	22.03588	219.41315	271.66116	24.61645	264.11703	115.67334	808.39545	-373.89197	31.44890	548.60577	-357.29050	186.81024	553.70270	-345.64606	-42.27045	557.83539	524.63910	104.71327	557.24622	536.30804	
2652	26.510	-180.04207	142.46420	-252.60922	315.34000	21.06508	-173.81129	-191.86565	22.04928	219.39786	271.54861	24.65928	264.09720	115.81124	808.12598	-373.39548	31.28185	548.46252	-357.02933	186.70744	553.50958	-345.25079	-44.71798	557.56909	524.19098	104.48735	557.38623	536.46399	
2653	26.520	-181.98724	143.09894	-255.04962	315.37549	21.08448	-173.69765	-191.88596	22.10100	219.42874	271.52173	24.64381	264.14099	115.70377	807.94788	-373.05316	31.08349	548.29169	-356.59714	186.46884	553.37592	-344.96246	-44.78928	557.51495	524.49078	104.44234	557.31873	537.06219	
2654	26.530	-183.56395	142.76379	-257.36755	315.27670	21.05001	-173.76837	-191.90424	22.03929	219.46158	271.52264	24.62253	264.12717	115.55986	807.84308	-372.70746	31.00755	548.28113	-356.35748	186.24930	553.27502	-344.60394	-44.74017	557.50037	525.02881	104.26259	557.21246	537.35309	
2655	26.540	-184.56999	141.93576	-259.99924	315.33527	21.07408	-173.66379	-191.93866	22.06505	219.47714	271.52805	24.60525	264.15842	115.38396	807.81866	-372.45074	30.92605	548.21765	-356.07709	186.10233	553.25665	-344.41043	-45.14953	557.41693	525.25299	104.17222	557.19995	537.62823	
2656	26.550	-185.70212	139.03847	-262.04144	315.18381	21.22943	-173.65706	-191.86967	21.95481	219.48598	271.51550	24.61206	264.12891	115.11980	807.80420	-372.30103	30.87371	548.15540	-355.74573	185.93269	553.32715	-344.20004	-45.49449	557.33612	525.26465	104.02160	557.19659	537.90692	
2657	26.560	-187.64145	133.50110	-264.69171	315.37360	21.22158	-173.60622	-191.95029	21.97698	219.48462	271.53970	24.57847	264.11938	114.91074	807.81183	-372.00577	30.85477	548.23114	-355.39124	185.85916	553.43414	-344.03888	-45.41763	557.34320	525.84711	103.92937	557.20264	538.15607	
2658	26.570	-188.97594	125.96069	-267.10443	315.09561	21.22756	-173.69620	-191.94630	21.99023	219.54652	271.54001	24.53936	264.14935	114.70900	807.95490	-371.77234	30.70402	548.24091	-355.13120	185.81310	553.61243	-343.63931	-45.61447	557.37354	526.08038	103.76698	557.29132	538.25806	
2659	26.580	-190.45691	116.28925	-269.27783	315.39767	21.23534	-173.59071	-191.95996	22.11938	219.58022	271.54282	24.56515	264.15219	114.41698	808.10925	-371.47476	30.55541	548.24127	-354.96252	185.81453	553.67365	-343.23666	-45.87037	557.41656	526.16302	103.50772	557.41687	538.46716	
2660	26.590	-191.76707	105.07347	-271.12137	315.20642	21.22606	-173.65439	-191.96564	22.10393	219.53726	271.54465	24.57552	264.15475	113.99345	808.20392	-371.19211	30.30985	548.21350	-354.81821	185.56494	553.67859	-342.99606	-46.08895	557.46356	526.72491	103.37022	557.50568	538.92096	
2661	26.600	-192.94913	93.17550	-272.45215	315.42200	21.23940	-173.60989	-192.01091	22.05791	219.50046	271.49097	24.64405	264.12732	113.52175	808.20001	-371.10529	30.20108	548.13348	-354.55743	185.28352	553.75555	-342.80334	-43.44067	557.83887	527.58173	103.25533	557.67072	539.12927	
2662	26.610	-193.17622	81.52003	-272.83505	315.22989	21.37399	-173.49535	-191.99532	21.89627	219.46222	271.48651	24.70422	264.13879	113.17683	808.05084	-371.02478	29.96975	548.01923	-354.33603	185.10744	553.76215	-342.71732	-44.53019	557.64685	527.01672	102.97753	557.89954	539.31061	
2663	26.620	-193.86705	70.80844	-273.00549	315.18964	21.34188	-173.50473	-191.97992	21.87173	219.48466	271.46347	24.71755	264.10364	112.93440	807.85406	-370.96783	29.83329	547.86566	-354.21573	184.90599	553.67511	-342.57458	-44.79655	557.68573	527.09631	102.69032	558.10205	539.43665	
